<svg xmlns="http://www.w3.org/2000/svg" viewBox="0 0 3659.99 463.2"><defs><style>.cls-1{fill:#fff;}</style></defs><g id="Calque_2" data-name="Calque 2"><g id="Calque_1-2" data-name="Calque 1"><path class="cls-1" d="M1642.79,231.6c0,127.85-103.64,231.48-231.48,231.48S1179.83,359.45,1179.83,231.6,1283.47.12,1411.31.12a232.34,232.34,0,0,1,39.21,3.31s-26.47,45,21.11,74c0,0-17,22.23-9.33,53.6a74.11,74.11,0,0,0,50.83,53.75c13,3.8,29.13,4.66,47.71-2.28,0,0,10.57,46.26,56.17,44.28,0,0,11.19-.36,25.42-8.12C1642.67,222.93,1642.79,227.26,1642.79,231.6Z"/><circle class="cls-1" cx="888.78" cy="231.6" r="149"/><path class="cls-1" d="M104.4,450.6,0,12.6H115.2l78.6,363-18.6-13.8h48.6l-21,13.8L262.2,28.2h90.6L270.6,450.6Zm260.4,0L276.6,28.2H372l69.6,347.4-21-13.8h45.6l-15.6,13.8,67.8-363h108l-91.8,438Z"/><path class="cls-1" d="M888,463.2q-60,0-104.4-20.7t-73.8-54.6Q680.39,354,666,314.4t-14.4-76.8V224.4a229.16,229.16,0,0,1,15-81.3,218.9,218.9,0,0,1,45-72.3q30-32.4,74.1-51.6T888,0q57.6,0,101.7,19.2t74.1,51.6a226.16,226.16,0,0,1,60.6,153.6v13.2q0,37.22-14.7,76.8t-44.1,73.5q-29.41,33.9-73.8,54.6T888,463.2Zm0-104.4q28.8,0,51.6-9.6a111.71,111.71,0,0,0,39-27,118,118,0,0,0,24.6-40.5,145.73,145.73,0,0,0,8.4-50.1q0-28.8-8.7-52.2A114.83,114.83,0,0,0,978,139.2a109.22,109.22,0,0,0-39-25.8q-22.82-9-51-9-28.8,0-51.6,9a109,109,0,0,0-39,25.8,111.08,111.08,0,0,0-24.6,40.2q-8.41,23.4-8.4,52.2a145.26,145.26,0,0,0,8.4,50.1,117.68,117.68,0,0,0,24.6,40.5,111.52,111.52,0,0,0,39,27Q859.19,358.8,888,358.8Z"/><path class="cls-1" d="M1710,453.6V9.6h111.6v444Zm99.6,0V349.2h72q28.2,0,50.7-8.1t38.1-23.4a102.86,102.86,0,0,0,24-37.2q8.4-21.9,8.4-49.5,0-28.8-8.4-50.7t-24-36.6q-15.6-14.7-38.1-22.2t-50.7-7.5h-72V9.6h67.2q59.4,0,104.1,16.8t74.7,46.5a193.34,193.34,0,0,1,45,68.7,228.72,228.72,0,0,1,15,82.8v13.2a216.64,216.64,0,0,1-15,78.9,206.14,206.14,0,0,1-45,69.6q-30,30.91-74.7,49.2t-104.1,18.3Z"/><path class="cls-1" d="M2132.4,110.72V13.52H2484v97.2Zm120,340.8V98.72H2364v352.8Z"/><path class="cls-1" d="M2460,451.52l140.4-438h178.8l145.2,438H2809.2l-112.8-360,31.8,12H2649l32.4-12-109.8,360Zm114.6-101.4,33.6-91.2h166.2l33.6,91.2Z"/><path class="cls-1" d="M2973.6,451.52V9.92h111.6v441.6Zm99.6-116.4v-96h72q20.39,0,35.4-8.1a57.94,57.94,0,0,0,23.4-23.1q8.39-15,8.4-35.4,0-21-8.4-36a56,56,0,0,0-23.4-22.8q-15-7.8-35.4-7.8h-72v-96h69q56.39,0,97.5,18.9t63.3,54.3q22.18,35.4,22.2,84.6v9.6q0,48.6-22.2,84t-63.3,54.6q-41.11,19.2-97.5,19.2Z"/><path class="cls-1" d="M3379.19,451.52v-438h108v438Zm96-346.8V13.52h181.2v91.2Zm0,169.8v-91.2h172.2v91.2Zm0,177v-91.2H3660v91.2Z"/></g></g></svg>