<svg xmlns="http://www.w3.org/2000/svg" viewBox="0 0 3292.94 3292.94"><defs><style>.cls-1{fill:#fff;}</style></defs><g id="Calque_2" data-name="Calque 2"><g id="Calque_1-2" data-name="Calque 1"><path class="cls-1" d="M3292.94,1646.49c0,909.34-737.16,1646.45-1646.45,1646.45S0,2555.83,0,1646.49,737.16,0,1646.49,0a1652.55,1652.55,0,0,1,278.88,23.55s-188.3,320.38,150.13,526.21c0,0-120.61,158.12-66.37,381.24,44.37,182.38,181.53,329.55,361.6,382.33,92.12,27,207.14,33.14,339.32-16.22,0,0,75.2,329,399.53,314.93,0,0,79.58-2.59,180.77-57.72Q3293,1600.07,3292.94,1646.49Z"/></g></g></svg>